<mxfile host="65bd71144e">
    <diagram id="kgpKYQtTHZ0yAKxKKP6v" name="Sequence Diagram">
        <mxGraphModel dx="501" dy="771" grid="1" gridSize="10" guides="1" tooltips="1" connect="1" arrows="1" fold="1" page="1" pageScale="1" pageWidth="850" pageHeight="1100" math="0" shadow="0">
            <root>
                <mxCell id="0"/>
                <mxCell id="1" parent="0"/>
                <mxCell id="3nuBFxr9cyL0pnOWT2aG-1" value="Conduit(s)" style="shape=umlLifeline;perimeter=lifelinePerimeter;container=1;collapsible=0;recursiveResize=0;rounded=0;shadow=0;strokeWidth=1;" parent="1" vertex="1">
                    <mxGeometry x="35" y="20" width="100" height="530" as="geometry"/>
                </mxCell>
                <mxCell id="3nuBFxr9cyL0pnOWT2aG-2" value="Receive" style="points=[];perimeter=orthogonalPerimeter;rounded=0;shadow=0;strokeWidth=1;fontSize=10;" parent="3nuBFxr9cyL0pnOWT2aG-1" vertex="1">
                    <mxGeometry x="45" y="80" width="10" height="70" as="geometry"/>
                </mxCell>
                <mxCell id="3nuBFxr9cyL0pnOWT2aG-3" value="dispatch" style="verticalAlign=bottom;startArrow=oval;endArrow=block;startSize=8;shadow=0;strokeWidth=1;" parent="3nuBFxr9cyL0pnOWT2aG-1" target="3nuBFxr9cyL0pnOWT2aG-2" edge="1">
                    <mxGeometry relative="1" as="geometry">
                        <mxPoint x="-15" y="80" as="sourcePoint"/>
                    </mxGeometry>
                </mxCell>
                <mxCell id="44pqgFXRjHEWeKOk363t-36" value="Extract" style="points=[];perimeter=orthogonalPerimeter;rounded=0;shadow=0;strokeWidth=1;fontSize=10;" parent="3nuBFxr9cyL0pnOWT2aG-1" vertex="1">
                    <mxGeometry x="45" y="160" width="10" height="100" as="geometry"/>
                </mxCell>
                <mxCell id="44pqgFXRjHEWeKOk363t-54" value="Transform" style="points=[];perimeter=orthogonalPerimeter;rounded=0;shadow=0;strokeWidth=1;fontSize=10;" parent="3nuBFxr9cyL0pnOWT2aG-1" vertex="1">
                    <mxGeometry x="45" y="270" width="10" height="70" as="geometry"/>
                </mxCell>
                <mxCell id="44pqgFXRjHEWeKOk363t-100" value="Delete" style="points=[];perimeter=orthogonalPerimeter;rounded=0;shadow=0;strokeWidth=1;fontSize=10;" parent="3nuBFxr9cyL0pnOWT2aG-1" vertex="1">
                    <mxGeometry x="45" y="430" width="10" height="60" as="geometry"/>
                </mxCell>
                <mxCell id="3nuBFxr9cyL0pnOWT2aG-5" value="SQS" style="shape=umlLifeline;perimeter=lifelinePerimeter;container=1;collapsible=0;recursiveResize=0;rounded=0;shadow=0;strokeWidth=1;" parent="1" vertex="1">
                    <mxGeometry x="175" y="20" width="100" height="530" as="geometry"/>
                </mxCell>
                <mxCell id="3nuBFxr9cyL0pnOWT2aG-6" value="GET" style="points=[];perimeter=orthogonalPerimeter;rounded=0;shadow=0;strokeWidth=1;" parent="3nuBFxr9cyL0pnOWT2aG-5" vertex="1">
                    <mxGeometry x="45" y="90" width="10" height="40" as="geometry"/>
                </mxCell>
                <mxCell id="44pqgFXRjHEWeKOk363t-49" value="&lt;b&gt;ExtractQueue&lt;/b&gt;" style="text;html=1;strokeColor=none;fillColor=none;align=center;verticalAlign=middle;whiteSpace=wrap;rounded=0;fontSize=8;" parent="3nuBFxr9cyL0pnOWT2aG-5" vertex="1">
                    <mxGeometry x="-30" y="179" width="60" height="11" as="geometry"/>
                </mxCell>
                <mxCell id="44pqgFXRjHEWeKOk363t-79" value="DELETE" style="points=[];perimeter=orthogonalPerimeter;rounded=0;shadow=0;strokeWidth=1;" parent="3nuBFxr9cyL0pnOWT2aG-5" vertex="1">
                    <mxGeometry x="45" y="460" width="10" height="30" as="geometry"/>
                </mxCell>
                <mxCell id="44pqgFXRjHEWeKOk363t-92" value="" style="group" parent="3nuBFxr9cyL0pnOWT2aG-5" vertex="1" connectable="0">
                    <mxGeometry x="-20" y="410" width="50" height="51" as="geometry"/>
                </mxCell>
                <mxCell id="44pqgFXRjHEWeKOk363t-93" value="" style="shape=cube;whiteSpace=wrap;html=1;boundedLbl=1;backgroundOutline=1;darkOpacity=0.05;darkOpacity2=0.1;fontSize=8;fillColor=none;gradientColor=none;container=0;" parent="44pqgFXRjHEWeKOk363t-92" vertex="1">
                    <mxGeometry y="30" width="40" height="10" as="geometry"/>
                </mxCell>
                <mxCell id="44pqgFXRjHEWeKOk363t-94" value="" style="shape=cube;whiteSpace=wrap;html=1;boundedLbl=1;backgroundOutline=1;darkOpacity=0.05;darkOpacity2=0.1;fontSize=8;fillColor=none;gradientColor=none;container=0;" parent="44pqgFXRjHEWeKOk363t-92" vertex="1">
                    <mxGeometry width="40" height="10" as="geometry"/>
                </mxCell>
                <mxCell id="44pqgFXRjHEWeKOk363t-95" value="" style="shape=cube;whiteSpace=wrap;html=1;boundedLbl=1;backgroundOutline=1;darkOpacity=0.05;darkOpacity2=0.1;fontSize=8;fillColor=none;gradientColor=none;container=0;" parent="44pqgFXRjHEWeKOk363t-92" vertex="1">
                    <mxGeometry y="10" width="40" height="10" as="geometry"/>
                </mxCell>
                <mxCell id="44pqgFXRjHEWeKOk363t-96" value="" style="shape=cube;whiteSpace=wrap;html=1;boundedLbl=1;backgroundOutline=1;darkOpacity=0.05;darkOpacity2=0.1;fontSize=8;fillColor=none;gradientColor=none;container=0;" parent="44pqgFXRjHEWeKOk363t-92" vertex="1">
                    <mxGeometry y="20" width="40" height="10" as="geometry"/>
                </mxCell>
                <mxCell id="44pqgFXRjHEWeKOk363t-97" value="&lt;b&gt;DeleteQueue&lt;/b&gt;" style="text;html=1;strokeColor=none;fillColor=none;align=center;verticalAlign=middle;whiteSpace=wrap;rounded=0;fontSize=8;" parent="44pqgFXRjHEWeKOk363t-92" vertex="1">
                    <mxGeometry x="-10" y="40" width="60" height="11" as="geometry"/>
                </mxCell>
                <mxCell id="3nuBFxr9cyL0pnOWT2aG-8" value="long-polling" style="verticalAlign=bottom;endArrow=block;entryX=0;entryY=0;shadow=0;strokeWidth=1;" parent="1" source="3nuBFxr9cyL0pnOWT2aG-2" target="3nuBFxr9cyL0pnOWT2aG-6" edge="1">
                    <mxGeometry relative="1" as="geometry">
                        <mxPoint x="190" y="140" as="sourcePoint"/>
                    </mxGeometry>
                </mxCell>
                <mxCell id="3nuBFxr9cyL0pnOWT2aG-9" value="receive message" style="verticalAlign=bottom;endArrow=block;shadow=0;strokeWidth=1;exitX=-0.257;exitY=0.993;exitDx=0;exitDy=0;exitPerimeter=0;" parent="1" source="3nuBFxr9cyL0pnOWT2aG-6" target="3nuBFxr9cyL0pnOWT2aG-1" edge="1">
                    <mxGeometry relative="1" as="geometry">
                        <mxPoint x="155" y="180" as="sourcePoint"/>
                        <mxPoint x="95" y="140" as="targetPoint"/>
                    </mxGeometry>
                </mxCell>
                <mxCell id="44pqgFXRjHEWeKOk363t-34" value="" style="group" parent="1" vertex="1" connectable="0">
                    <mxGeometry x="155" y="160" width="50" height="40" as="geometry"/>
                </mxCell>
                <mxCell id="44pqgFXRjHEWeKOk363t-29" value="" style="shape=cube;whiteSpace=wrap;html=1;boundedLbl=1;backgroundOutline=1;darkOpacity=0.05;darkOpacity2=0.1;fontSize=8;fillColor=none;gradientColor=none;container=0;" parent="44pqgFXRjHEWeKOk363t-34" vertex="1">
                    <mxGeometry y="30" width="40" height="10" as="geometry"/>
                </mxCell>
                <mxCell id="44pqgFXRjHEWeKOk363t-26" value="" style="shape=cube;whiteSpace=wrap;html=1;boundedLbl=1;backgroundOutline=1;darkOpacity=0.05;darkOpacity2=0.1;fontSize=8;fillColor=none;gradientColor=none;container=0;" parent="44pqgFXRjHEWeKOk363t-34" vertex="1">
                    <mxGeometry width="40" height="10" as="geometry"/>
                </mxCell>
                <mxCell id="44pqgFXRjHEWeKOk363t-27" value="" style="shape=cube;whiteSpace=wrap;html=1;boundedLbl=1;backgroundOutline=1;darkOpacity=0.05;darkOpacity2=0.1;fontSize=8;fillColor=none;gradientColor=none;container=0;" parent="44pqgFXRjHEWeKOk363t-34" vertex="1">
                    <mxGeometry y="10" width="40" height="10" as="geometry"/>
                </mxCell>
                <mxCell id="44pqgFXRjHEWeKOk363t-28" value="" style="shape=cube;whiteSpace=wrap;html=1;boundedLbl=1;backgroundOutline=1;darkOpacity=0.05;darkOpacity2=0.1;fontSize=8;fillColor=none;gradientColor=none;container=0;" parent="44pqgFXRjHEWeKOk363t-34" vertex="1">
                    <mxGeometry y="20" width="40" height="10" as="geometry"/>
                </mxCell>
                <mxCell id="44pqgFXRjHEWeKOk363t-35" style="edgeStyle=orthogonalEdgeStyle;rounded=0;orthogonalLoop=1;jettySize=auto;html=1;entryX=0;entryY=0;entryDx=5;entryDy=5;entryPerimeter=0;fontSize=8;" parent="1" source="3nuBFxr9cyL0pnOWT2aG-2" target="44pqgFXRjHEWeKOk363t-26" edge="1">
                    <mxGeometry relative="1" as="geometry">
                        <Array as="points">
                            <mxPoint x="105" y="165"/>
                            <mxPoint x="105" y="165"/>
                        </Array>
                    </mxGeometry>
                </mxCell>
                <mxCell id="44pqgFXRjHEWeKOk363t-37" style="edgeStyle=orthogonalEdgeStyle;rounded=0;orthogonalLoop=1;jettySize=auto;html=1;entryX=1.057;entryY=0.086;entryDx=0;entryDy=0;entryPerimeter=0;fontSize=8;" parent="1" source="44pqgFXRjHEWeKOk363t-28" target="44pqgFXRjHEWeKOk363t-36" edge="1">
                    <mxGeometry relative="1" as="geometry">
                        <Array as="points">
                            <mxPoint x="155" y="189"/>
                            <mxPoint x="155" y="189"/>
                        </Array>
                    </mxGeometry>
                </mxCell>
                <mxCell id="44pqgFXRjHEWeKOk363t-38" value="S3" style="shape=umlLifeline;perimeter=lifelinePerimeter;container=1;collapsible=0;recursiveResize=0;rounded=0;shadow=0;strokeWidth=1;" parent="1" vertex="1">
                    <mxGeometry x="315" y="20" width="100" height="530" as="geometry"/>
                </mxCell>
                <mxCell id="44pqgFXRjHEWeKOk363t-39" value="GET" style="points=[];perimeter=orthogonalPerimeter;rounded=0;shadow=0;strokeWidth=1;" parent="44pqgFXRjHEWeKOk363t-38" vertex="1">
                    <mxGeometry x="45" y="190" width="10" height="30" as="geometry"/>
                </mxCell>
                <mxCell id="44pqgFXRjHEWeKOk363t-77" value="PUT" style="points=[];perimeter=orthogonalPerimeter;rounded=0;shadow=0;strokeWidth=1;" parent="44pqgFXRjHEWeKOk363t-38" vertex="1">
                    <mxGeometry x="45" y="380" width="10" height="40" as="geometry"/>
                </mxCell>
                <mxCell id="44pqgFXRjHEWeKOk363t-41" style="edgeStyle=orthogonalEdgeStyle;rounded=0;orthogonalLoop=1;jettySize=auto;html=1;entryX=1.033;entryY=0.557;entryDx=0;entryDy=0;entryPerimeter=0;fontSize=8;" parent="1" source="44pqgFXRjHEWeKOk363t-39" target="44pqgFXRjHEWeKOk363t-36" edge="1">
                    <mxGeometry relative="1" as="geometry">
                        <Array as="points">
                            <mxPoint x="225" y="236"/>
                        </Array>
                    </mxGeometry>
                </mxCell>
                <mxCell id="44pqgFXRjHEWeKOk363t-42" style="edgeStyle=orthogonalEdgeStyle;rounded=0;orthogonalLoop=1;jettySize=auto;html=1;fontSize=8;" parent="1" source="44pqgFXRjHEWeKOk363t-36" target="44pqgFXRjHEWeKOk363t-38" edge="1">
                    <mxGeometry relative="1" as="geometry">
                        <Array as="points">
                            <mxPoint x="145" y="215"/>
                            <mxPoint x="145" y="215"/>
                        </Array>
                    </mxGeometry>
                </mxCell>
                <mxCell id="44pqgFXRjHEWeKOk363t-43" value="" style="group" parent="1" vertex="1" connectable="0">
                    <mxGeometry x="155" y="250" width="50" height="51" as="geometry"/>
                </mxCell>
                <mxCell id="44pqgFXRjHEWeKOk363t-44" value="" style="shape=cube;whiteSpace=wrap;html=1;boundedLbl=1;backgroundOutline=1;darkOpacity=0.05;darkOpacity2=0.1;fontSize=8;fillColor=none;gradientColor=none;container=0;" parent="44pqgFXRjHEWeKOk363t-43" vertex="1">
                    <mxGeometry y="30" width="40" height="10" as="geometry"/>
                </mxCell>
                <mxCell id="44pqgFXRjHEWeKOk363t-45" value="" style="shape=cube;whiteSpace=wrap;html=1;boundedLbl=1;backgroundOutline=1;darkOpacity=0.05;darkOpacity2=0.1;fontSize=8;fillColor=none;gradientColor=none;container=0;" parent="44pqgFXRjHEWeKOk363t-43" vertex="1">
                    <mxGeometry width="40" height="10" as="geometry"/>
                </mxCell>
                <mxCell id="44pqgFXRjHEWeKOk363t-46" value="" style="shape=cube;whiteSpace=wrap;html=1;boundedLbl=1;backgroundOutline=1;darkOpacity=0.05;darkOpacity2=0.1;fontSize=8;fillColor=none;gradientColor=none;container=0;" parent="44pqgFXRjHEWeKOk363t-43" vertex="1">
                    <mxGeometry y="10" width="40" height="10" as="geometry"/>
                </mxCell>
                <mxCell id="44pqgFXRjHEWeKOk363t-47" value="" style="shape=cube;whiteSpace=wrap;html=1;boundedLbl=1;backgroundOutline=1;darkOpacity=0.05;darkOpacity2=0.1;fontSize=8;fillColor=none;gradientColor=none;container=0;" parent="44pqgFXRjHEWeKOk363t-43" vertex="1">
                    <mxGeometry y="20" width="40" height="10" as="geometry"/>
                </mxCell>
                <mxCell id="44pqgFXRjHEWeKOk363t-53" value="&lt;b&gt;TransformQueue&lt;/b&gt;" style="text;html=1;strokeColor=none;fillColor=none;align=center;verticalAlign=middle;whiteSpace=wrap;rounded=0;fontSize=8;" parent="44pqgFXRjHEWeKOk363t-43" vertex="1">
                    <mxGeometry x="-10" y="40" width="60" height="11" as="geometry"/>
                </mxCell>
                <mxCell id="44pqgFXRjHEWeKOk363t-48" style="edgeStyle=orthogonalEdgeStyle;rounded=0;orthogonalLoop=1;jettySize=auto;html=1;fontSize=8;" parent="1" source="44pqgFXRjHEWeKOk363t-36" edge="1">
                    <mxGeometry relative="1" as="geometry">
                        <mxPoint x="155" y="260" as="targetPoint"/>
                        <Array as="points">
                            <mxPoint x="105" y="260"/>
                            <mxPoint x="105" y="260"/>
                        </Array>
                    </mxGeometry>
                </mxCell>
                <mxCell id="44pqgFXRjHEWeKOk363t-55" style="edgeStyle=orthogonalEdgeStyle;rounded=0;orthogonalLoop=1;jettySize=auto;html=1;entryX=0.895;entryY=0.114;entryDx=0;entryDy=0;entryPerimeter=0;fontSize=8;" parent="1" source="44pqgFXRjHEWeKOk363t-47" target="44pqgFXRjHEWeKOk363t-54" edge="1">
                    <mxGeometry relative="1" as="geometry"/>
                </mxCell>
                <mxCell id="44pqgFXRjHEWeKOk363t-61" style="edgeStyle=orthogonalEdgeStyle;rounded=0;orthogonalLoop=1;jettySize=auto;html=1;fontSize=8;" parent="1" source="44pqgFXRjHEWeKOk363t-54" target="44pqgFXRjHEWeKOk363t-62" edge="1">
                    <mxGeometry relative="1" as="geometry">
                        <mxPoint x="145" y="320" as="targetPoint"/>
                        <Array as="points">
                            <mxPoint x="95" y="320"/>
                            <mxPoint x="95" y="320"/>
                        </Array>
                    </mxGeometry>
                </mxCell>
                <mxCell id="44pqgFXRjHEWeKOk363t-63" style="edgeStyle=orthogonalEdgeStyle;rounded=0;orthogonalLoop=1;jettySize=auto;html=1;fontSize=8;" parent="1" source="44pqgFXRjHEWeKOk363t-62" target="44pqgFXRjHEWeKOk363t-54" edge="1">
                    <mxGeometry relative="1" as="geometry">
                        <Array as="points">
                            <mxPoint x="160" y="334"/>
                        </Array>
                    </mxGeometry>
                </mxCell>
                <mxCell id="44pqgFXRjHEWeKOk363t-62" value="myTransform" style="shape=process;whiteSpace=wrap;html=1;backgroundOutline=1;fontSize=8;fillColor=none;gradientColor=none;" parent="1" vertex="1">
                    <mxGeometry x="125" y="315" width="70" height="10" as="geometry"/>
                </mxCell>
                <mxCell id="44pqgFXRjHEWeKOk363t-64" value="" style="group" parent="1" vertex="1" connectable="0">
                    <mxGeometry x="155" y="350" width="50" height="51" as="geometry"/>
                </mxCell>
                <mxCell id="44pqgFXRjHEWeKOk363t-65" value="" style="shape=cube;whiteSpace=wrap;html=1;boundedLbl=1;backgroundOutline=1;darkOpacity=0.05;darkOpacity2=0.1;fontSize=8;fillColor=none;gradientColor=none;container=0;" parent="44pqgFXRjHEWeKOk363t-64" vertex="1">
                    <mxGeometry y="30" width="40" height="10" as="geometry"/>
                </mxCell>
                <mxCell id="44pqgFXRjHEWeKOk363t-66" value="" style="shape=cube;whiteSpace=wrap;html=1;boundedLbl=1;backgroundOutline=1;darkOpacity=0.05;darkOpacity2=0.1;fontSize=8;fillColor=none;gradientColor=none;container=0;" parent="44pqgFXRjHEWeKOk363t-64" vertex="1">
                    <mxGeometry width="40" height="10" as="geometry"/>
                </mxCell>
                <mxCell id="44pqgFXRjHEWeKOk363t-67" value="" style="shape=cube;whiteSpace=wrap;html=1;boundedLbl=1;backgroundOutline=1;darkOpacity=0.05;darkOpacity2=0.1;fontSize=8;fillColor=none;gradientColor=none;container=0;" parent="44pqgFXRjHEWeKOk363t-64" vertex="1">
                    <mxGeometry y="10" width="40" height="10" as="geometry"/>
                </mxCell>
                <mxCell id="44pqgFXRjHEWeKOk363t-68" value="" style="shape=cube;whiteSpace=wrap;html=1;boundedLbl=1;backgroundOutline=1;darkOpacity=0.05;darkOpacity2=0.1;fontSize=8;fillColor=none;gradientColor=none;container=0;" parent="44pqgFXRjHEWeKOk363t-64" vertex="1">
                    <mxGeometry y="20" width="40" height="10" as="geometry"/>
                </mxCell>
                <mxCell id="44pqgFXRjHEWeKOk363t-69" value="&lt;b&gt;UploadQueue&lt;/b&gt;" style="text;html=1;strokeColor=none;fillColor=none;align=center;verticalAlign=middle;whiteSpace=wrap;rounded=0;fontSize=8;" parent="44pqgFXRjHEWeKOk363t-64" vertex="1">
                    <mxGeometry x="-10" y="40" width="60" height="11" as="geometry"/>
                </mxCell>
                <mxCell id="44pqgFXRjHEWeKOk363t-72" style="edgeStyle=orthogonalEdgeStyle;rounded=0;orthogonalLoop=1;jettySize=auto;html=1;entryX=0;entryY=0;entryDx=0;entryDy=0;entryPerimeter=0;fontSize=8;" parent="1" source="44pqgFXRjHEWeKOk363t-54" target="44pqgFXRjHEWeKOk363t-67" edge="1">
                    <mxGeometry relative="1" as="geometry">
                        <Array as="points">
                            <mxPoint x="125" y="360"/>
                            <mxPoint x="125" y="360"/>
                        </Array>
                    </mxGeometry>
                </mxCell>
                <mxCell id="44pqgFXRjHEWeKOk363t-78" style="edgeStyle=orthogonalEdgeStyle;rounded=0;orthogonalLoop=1;jettySize=auto;html=1;fontSize=8;" parent="1" source="44pqgFXRjHEWeKOk363t-73" edge="1">
                    <mxGeometry relative="1" as="geometry">
                        <mxPoint x="360" y="415" as="targetPoint"/>
                        <Array as="points">
                            <mxPoint x="360" y="415"/>
                        </Array>
                    </mxGeometry>
                </mxCell>
                <mxCell id="44pqgFXRjHEWeKOk363t-99" style="edgeStyle=orthogonalEdgeStyle;rounded=0;orthogonalLoop=1;jettySize=auto;html=1;entryX=0;entryY=0;entryDx=0;entryDy=0;entryPerimeter=0;fontSize=8;" parent="1" source="44pqgFXRjHEWeKOk363t-73" target="44pqgFXRjHEWeKOk363t-95" edge="1">
                    <mxGeometry relative="1" as="geometry">
                        <Array as="points">
                            <mxPoint x="115" y="440"/>
                            <mxPoint x="115" y="440"/>
                        </Array>
                    </mxGeometry>
                </mxCell>
                <mxCell id="44pqgFXRjHEWeKOk363t-73" value="Upload" style="points=[];perimeter=orthogonalPerimeter;rounded=0;shadow=0;strokeWidth=1;fontSize=10;" parent="1" vertex="1">
                    <mxGeometry x="80" y="380" width="10" height="60" as="geometry"/>
                </mxCell>
                <mxCell id="44pqgFXRjHEWeKOk363t-74" style="edgeStyle=orthogonalEdgeStyle;rounded=0;orthogonalLoop=1;jettySize=auto;html=1;entryX=1;entryY=0.14;entryDx=0;entryDy=0;entryPerimeter=0;fontSize=8;" parent="1" source="44pqgFXRjHEWeKOk363t-65" target="44pqgFXRjHEWeKOk363t-73" edge="1">
                    <mxGeometry relative="1" as="geometry">
                        <Array as="points">
                            <mxPoint x="123" y="385"/>
                            <mxPoint x="123" y="388"/>
                        </Array>
                    </mxGeometry>
                </mxCell>
                <mxCell id="44pqgFXRjHEWeKOk363t-98" style="edgeStyle=orthogonalEdgeStyle;rounded=0;orthogonalLoop=1;jettySize=auto;html=1;entryX=1;entryY=0.743;entryDx=0;entryDy=0;entryPerimeter=0;fontSize=8;" parent="1" source="44pqgFXRjHEWeKOk363t-77" target="44pqgFXRjHEWeKOk363t-73" edge="1">
                    <mxGeometry relative="1" as="geometry">
                        <Array as="points">
                            <mxPoint x="225" y="425"/>
                        </Array>
                    </mxGeometry>
                </mxCell>
                <mxCell id="44pqgFXRjHEWeKOk363t-101" value="" style="edgeStyle=orthogonalEdgeStyle;rounded=0;orthogonalLoop=1;jettySize=auto;html=1;fontSize=8;startArrow=classic;startFill=1;endArrow=none;endFill=0;" parent="1" source="44pqgFXRjHEWeKOk363t-100" target="44pqgFXRjHEWeKOk363t-97" edge="1">
                    <mxGeometry relative="1" as="geometry"/>
                </mxCell>
                <mxCell id="44pqgFXRjHEWeKOk363t-104" style="edgeStyle=orthogonalEdgeStyle;rounded=0;orthogonalLoop=1;jettySize=auto;html=1;entryX=0;entryY=0.195;entryDx=0;entryDy=0;entryPerimeter=0;fontSize=8;startArrow=none;startFill=0;endArrow=classic;endFill=1;" parent="1" source="44pqgFXRjHEWeKOk363t-100" target="44pqgFXRjHEWeKOk363t-79" edge="1">
                    <mxGeometry relative="1" as="geometry">
                        <Array as="points">
                            <mxPoint x="125" y="486"/>
                            <mxPoint x="125" y="486"/>
                        </Array>
                    </mxGeometry>
                </mxCell>
                <mxCell id="44pqgFXRjHEWeKOk363t-105" style="edgeStyle=orthogonalEdgeStyle;rounded=0;orthogonalLoop=1;jettySize=auto;html=1;entryX=1.16;entryY=0.937;entryDx=0;entryDy=0;entryPerimeter=0;fontSize=8;startArrow=none;startFill=0;endArrow=classic;endFill=1;" parent="1" source="44pqgFXRjHEWeKOk363t-79" target="44pqgFXRjHEWeKOk363t-100" edge="1">
                    <mxGeometry relative="1" as="geometry">
                        <Array as="points">
                            <mxPoint x="155" y="506"/>
                        </Array>
                    </mxGeometry>
                </mxCell>
                <mxCell id="2" value="exit" style="verticalAlign=bottom;startArrow=oval;endArrow=block;startSize=8;shadow=0;strokeWidth=1;exitX=0.48;exitY=1;exitDx=0;exitDy=0;exitPerimeter=0;" parent="1" source="3nuBFxr9cyL0pnOWT2aG-1" edge="1">
                    <mxGeometry relative="1" as="geometry">
                        <mxPoint x="105" y="590" as="sourcePoint"/>
                        <mxPoint x="20" y="550" as="targetPoint"/>
                    </mxGeometry>
                </mxCell>
            </root>
        </mxGraphModel>
    </diagram>
    <diagram id="pGdQn8NrZOOG16DzlZi-" name="Architecture">
        <mxGraphModel dx="501" dy="771" grid="1" gridSize="10" guides="1" tooltips="1" connect="1" arrows="1" fold="1" page="1" pageScale="1" pageWidth="850" pageHeight="1100" math="0" shadow="0">
            <root>
                <mxCell id="Rmz3TJSl8vBQmzqYYvyy-0"/>
                <mxCell id="Rmz3TJSl8vBQmzqYYvyy-1" parent="Rmz3TJSl8vBQmzqYYvyy-0"/>
                <mxCell id="k0d4bYU82dAv1B0ZDlXk-14" value="" style="rounded=1;whiteSpace=wrap;html=1;" parent="Rmz3TJSl8vBQmzqYYvyy-1" vertex="1">
                    <mxGeometry x="22.38" y="30" width="357.62" height="150" as="geometry"/>
                </mxCell>
                <mxCell id="k0d4bYU82dAv1B0ZDlXk-5" style="edgeStyle=none;html=1;entryX=0;entryY=0.5;entryDx=0;entryDy=0;" parent="Rmz3TJSl8vBQmzqYYvyy-1" source="k0d4bYU82dAv1B0ZDlXk-0" target="k0d4bYU82dAv1B0ZDlXk-3" edge="1">
                    <mxGeometry relative="1" as="geometry">
                        <Array as="points">
                            <mxPoint x="78" y="250"/>
                        </Array>
                    </mxGeometry>
                </mxCell>
                <mxCell id="k0d4bYU82dAv1B0ZDlXk-6" style="edgeStyle=none;html=1;entryX=0;entryY=0.64;entryDx=0;entryDy=0;entryPerimeter=0;" parent="Rmz3TJSl8vBQmzqYYvyy-1" source="k0d4bYU82dAv1B0ZDlXk-0" target="k0d4bYU82dAv1B0ZDlXk-2" edge="1">
                    <mxGeometry relative="1" as="geometry"/>
                </mxCell>
                <mxCell id="k0d4bYU82dAv1B0ZDlXk-0" value="S3&lt;br&gt;ingress" style="outlineConnect=0;dashed=0;verticalLabelPosition=bottom;verticalAlign=top;align=center;html=1;shape=mxgraph.aws3.s3;fillColor=#E05243;gradientColor=none;" parent="Rmz3TJSl8vBQmzqYYvyy-1" vertex="1">
                    <mxGeometry x="40" y="40" width="76.5" height="93" as="geometry"/>
                </mxCell>
                <mxCell id="k0d4bYU82dAv1B0ZDlXk-4" style="edgeStyle=none;html=1;" parent="Rmz3TJSl8vBQmzqYYvyy-1" source="k0d4bYU82dAv1B0ZDlXk-1" target="k0d4bYU82dAv1B0ZDlXk-3" edge="1">
                    <mxGeometry relative="1" as="geometry"/>
                </mxCell>
                <mxCell id="k0d4bYU82dAv1B0ZDlXk-13" value="SQS" style="edgeLabel;html=1;align=center;verticalAlign=middle;resizable=0;points=[];" parent="k0d4bYU82dAv1B0ZDlXk-4" vertex="1" connectable="0">
                    <mxGeometry x="-0.6679" y="-2" relative="1" as="geometry">
                        <mxPoint as="offset"/>
                    </mxGeometry>
                </mxCell>
                <mxCell id="k0d4bYU82dAv1B0ZDlXk-1" value="" style="outlineConnect=0;dashed=0;verticalLabelPosition=bottom;verticalAlign=top;align=center;html=1;shape=mxgraph.aws3.sqs;fillColor=#D9A741;gradientColor=none;" parent="Rmz3TJSl8vBQmzqYYvyy-1" vertex="1">
                    <mxGeometry x="280" y="40" width="76.5" height="93" as="geometry"/>
                </mxCell>
                <mxCell id="k0d4bYU82dAv1B0ZDlXk-7" style="edgeStyle=none;html=1;" parent="Rmz3TJSl8vBQmzqYYvyy-1" source="k0d4bYU82dAv1B0ZDlXk-2" target="k0d4bYU82dAv1B0ZDlXk-1" edge="1">
                    <mxGeometry relative="1" as="geometry"/>
                </mxCell>
                <mxCell id="k0d4bYU82dAv1B0ZDlXk-2" value="SNS" style="outlineConnect=0;dashed=0;verticalLabelPosition=bottom;verticalAlign=top;align=center;html=1;shape=mxgraph.aws3.sns;fillColor=#D9A741;gradientColor=none;" parent="Rmz3TJSl8vBQmzqYYvyy-1" vertex="1">
                    <mxGeometry x="160" y="40" width="76.5" height="76.5" as="geometry"/>
                </mxCell>
                <mxCell id="k0d4bYU82dAv1B0ZDlXk-9" style="edgeStyle=none;html=1;entryX=0.5;entryY=1;entryDx=0;entryDy=0;entryPerimeter=0;" parent="Rmz3TJSl8vBQmzqYYvyy-1" source="k0d4bYU82dAv1B0ZDlXk-3" target="k0d4bYU82dAv1B0ZDlXk-8" edge="1">
                    <mxGeometry relative="1" as="geometry">
                        <Array as="points">
                            <mxPoint x="438" y="250"/>
                        </Array>
                    </mxGeometry>
                </mxCell>
                <mxCell id="k0d4bYU82dAv1B0ZDlXk-3" value="Conduit" style="shape=process;whiteSpace=wrap;html=1;backgroundOutline=1;" parent="Rmz3TJSl8vBQmzqYYvyy-1" vertex="1">
                    <mxGeometry x="258.25" y="220" width="120" height="60" as="geometry"/>
                </mxCell>
                <mxCell id="k0d4bYU82dAv1B0ZDlXk-8" value="S3&lt;br&gt;egress" style="outlineConnect=0;dashed=0;verticalLabelPosition=bottom;verticalAlign=top;align=center;html=1;shape=mxgraph.aws3.s3;fillColor=#E05243;gradientColor=none;" parent="Rmz3TJSl8vBQmzqYYvyy-1" vertex="1">
                    <mxGeometry x="400" y="40" width="76.5" height="93" as="geometry"/>
                </mxCell>
                <mxCell id="k0d4bYU82dAv1B0ZDlXk-15" value="Logic managed by AWS" style="text;html=1;strokeColor=none;fillColor=none;align=center;verticalAlign=middle;whiteSpace=wrap;rounded=0;" parent="Rmz3TJSl8vBQmzqYYvyy-1" vertex="1">
                    <mxGeometry x="120" y="160" width="160" height="20" as="geometry"/>
                </mxCell>
                <mxCell id="k0d4bYU82dAv1B0ZDlXk-18" value="Blob Queue" style="text;html=1;strokeColor=none;fillColor=none;align=center;verticalAlign=middle;whiteSpace=wrap;rounded=0;" parent="Rmz3TJSl8vBQmzqYYvyy-1" vertex="1">
                    <mxGeometry x="156.5" y="150" width="80" height="20" as="geometry"/>
                </mxCell>
            </root>
        </mxGraphModel>
    </diagram>
</mxfile>